<?xml version="1.0" encoding="UTF-8"?>
<svg id="Livello_1" xmlns="http://www.w3.org/2000/svg" width="15" height="15" version="1.1" viewBox="0 0 15 15">
  <!-- Generator: Adobe Illustrator 29.6.0, SVG Export Plug-In . SVG Version: 2.1.1 Build 207)  -->
  <g>
    <path d="M14.6,6.3c0-.3-.3-.5-.5-.4l-6.6,2.1L.7,10.3c-.2,0-.3.2-.3.4v1.3c0,.2.1.3.3.4l6.3,2c.4.1.8.1,1.2,0l6.3-2c.2,0,.3-.2.3-.4v-1.3c0-.2-.1-.3-.3-.4l-2.3-.7c-.4-.1-.4-.7,0-.8l2.3-.7c.2,0,.3-.2.3-.4v-1.3h0ZM9.6,11.8l-1.5.5c-.4.1-.8.1-1.2,0l-1.5-.5c-.2,0-.3-.2-.3-.4h0c0-.2.1-.4.3-.4l1.5-.5c.4-.1.8-.1,1.2,0l1.5.5c.2,0,.3.2.3.4h0c0,.2-.1.4-.3.4Z"/>
    <path d="M14.6,3v1.3c0,.2-.1.3-.3.4h0c0,0-.2,0-.3,0l-6-2c-.4-.1-.8-.1-1.2,0l-1.5.5c-.2,0-.3.2-.3.4h0c0,.2.1.4.3.4l1.3.5c.4.2.9.2,1.3,0l1.1-.4c.5-.2,1.1-.2,1.6,0l1.4.5c.4.1.4.7,0,.8L.9,9.1c-.3,0-.5-.1-.5-.4v-1.3c0-.2.1-.3.3-.4l2.3-.7c.4-.1.4-.7,0-.8l-2.3-.7c-.2,0-.3-.2-.3-.4v-1.3c0-.2.1-.3.3-.4L6.9.6c.4-.1.8-.1,1.2,0l6.3,2c.2,0,.3.2.3.4h0Z"/>
  </g>
  <g>
    <path d="M14.6,6.3c0-.3-.3-.5-.5-.4l-6.6,2.1L.7,10.3c-.2,0-.3.2-.3.4v1.3c0,.2.1.3.3.4l6.3,2c.4.1.8.1,1.2,0l6.3-2c.2,0,.3-.2.3-.4v-1.3c0-.2-.1-.3-.3-.4l-2.3-.7c-.4-.1-.4-.7,0-.8l2.3-.7c.2,0,.3-.2.3-.4v-1.3h0ZM9.6,11.8l-1.5.5c-.4.1-.8.1-1.2,0l-1.5-.5c-.2,0-.3-.2-.3-.4h0c0-.2.1-.4.3-.4l1.5-.5c.4-.1.8-.1,1.2,0l1.5.5c.2,0,.3.2.3.4h0c0,.2-.1.4-.3.4Z"/>
    <path d="M14.6,3v1.3c0,.2-.1.3-.3.4h0c0,0-.2,0-.3,0l-6-2c-.4-.1-.8-.1-1.2,0l-1.5.5c-.2,0-.3.2-.3.4h0c0,.2.1.4.3.4l1.3.5c.4.2.9.2,1.3,0l1.1-.4c.5-.2,1.1-.2,1.6,0l1.4.5c.4.1.4.7,0,.8L.9,9.1c-.3,0-.5-.1-.5-.4v-1.3c0-.2.1-.3.3-.4l2.3-.7c.4-.1.4-.7,0-.8l-2.3-.7c-.2,0-.3-.2-.3-.4v-1.3c0-.2.1-.3.3-.4L6.9.6c.4-.1.8-.1,1.2,0l6.3,2c.2,0,.3.2.3.4h0Z"/>
  </g>
</svg>