<?xml version="1.0" encoding="UTF-8"?>
<svg id="Capa_2" xmlns="http://www.w3.org/2000/svg" width="228.1" height="45" version="1.1" viewBox="0 0 228.1 45">
  <!-- Generator: Adobe Illustrator 29.6.0, SVG Export Plug-In . SVG Version: 2.1.1 Build 207)  -->
  <polygon points="104.3 0 103.9 1.2 90.5 44.4 90.2 45.1 82.6 45.1 83 43.8 96.5 .6 96.7 0 104.3 0"/>
  <path d="M129.1,2.3c-1.5-1.6-3.9-2.4-7.3-2.4h-12.8l-.2.7-13.4,43.2-.4,1.3h14.5c3.3,0,6-.8,8.3-2.3,2.3-1.6,3.9-3.8,4.7-6.6l1.9-6.3c.8-2.5.8-4.5,0-6.1-.4-.9-1-1.5-1.7-2.1.9-.5,1.8-1.1,2.5-1.9,1.4-1.4,2.4-3.2,3.1-5.5l1.6-5.2c.8-2.9.5-5.2-.9-6.8ZM117.1,28.8l-2,6.7c-.3.9-.8,1.6-1.6,2.2-.8.5-1.8.8-3,.8h-5.8l4.2-13.6h6c1.4,0,1.9.5,2.2.9.4.6.4,1.7,0,3ZM122.6,9l-1.6,5.3c-.4,1.3-1,2.4-1.8,3-.8.7-1.7,1-2.8,1h-5.4l3.6-11.7h6.6c.9.1,1.2.5,1.3.6.1.1.4.5,0,1.8Z"/>
  <path d="M144.9,0l-.3.5-24,43.2-.8,1.4h8.4l.3-.5,4.9-9.4h9.9l-.7,8.9v1c0,0,8,0,8,0v-.9s1.7-43.2,1.7-43.2V0s-7.3,0-7.3,0ZM143.7,28.5h-6.9l8.2-15.9-1.3,15.9Z"/>
  <path d="M184.5,11.5l-.6,2.1-.2.7h-8l.4-1.2.6-2.1c.4-1.6.4-2.9,0-3.6-.3-.5-.9-1.1-2.7-1.1s-3,.5-4.2,1.4c-1.2,1-2.1,2.4-2.6,4.1l-6.5,22.5c-.4,1.4-.3,2.6.3,3.3.7.9,2.2,1.1,3.3,1.1,1.7,0,3.1-.5,4.3-1.4,1.2-.9,2-2.3,2.5-4.1l1.9-6.8h-6.1l.4-1.2,1.3-4.6.2-.7h13.7l-.3,1.2-3.6,12.6c-.7,2.5-1.8,4.6-3.3,6.4-1.4,1.7-3.2,3.1-5.4,4.1-2.1,1-4.4,1.4-7.1,1.4s-4.8-.5-6.5-1.4c-1.8-.9-2.9-2.3-3.5-4.1-.5-1.7-.4-3.8.3-6.2l6.6-22.5c.8-2.5,1.9-4.6,3.3-6.3,1.5-1.8,3.3-3.2,5.3-4.1,2-.9,4.4-1.4,7-1.4s4.6.5,6.2,1.4c1.6,1,2.7,2.4,3.2,4.2.5,1.8.4,3.8-.3,6.3Z"/>
  <path d="M199.5,0l-.3.5-23.2,43.2-.8,1.4h8.3l.3-.5,4.7-9.4h9.9l-.5,8.9v1c0,0,8,0,8,0v-1s.9-43.2.9-43.2V0s-7.4,0-7.4,0ZM198.7,28.5h-6.9l7.9-15.9-1,15.9Z"/>
  <polygon points="228.1 0 227.7 1.2 216 44.3 215.8 45.1 208.2 45.1 208.5 43.8 220.3 .7 220.5 0 228.1 0"/>
  <path d="M63.1,2.3c-1.4-1.6-3.9-2.4-7.2-2.4h-12.8l-.2.7-14.3,43.2-.4,1.3h14.5c3.3,0,6.1-.8,8.3-2.3,2.3-1.6,3.9-3.8,4.8-6.6l2-6.3c.8-2.5.8-4.5.2-6.1-.4-.9-.9-1.5-1.7-2.1.9-.5,1.8-1.1,2.6-1.9,1.4-1.4,2.5-3.2,3.3-5.5l1.7-5.2c.9-2.9.7-5.2-.8-6.9ZM50.6,28.8l-1.9,6-.3.7c-.3.9-.8,1.6-1.7,2.2-.7.5-1.7.8-3,.8h-5.7l4.5-13.6h6c1,0,1.7.3,2.1.9.4.7.4,1.7,0,3ZM56.4,8.9l-1.7,5.3c-.4,1.3-1.1,2.3-1.9,3-.8.7-1.7,1-2.8,1h-5.3l3.8-11.7h6.7c.6,0,1,.3,1.2.6.3.4.3,1,0,1.8Z"/>
  <polygon points="93.6 0 93.2 1.2 91.7 5.9 91.5 6.6 76.6 6.6 72.5 19.3 85.9 19.3 85.5 20.6 84 25.3 83.8 26 70.4 26 66.4 38.4 81.5 38.4 81.1 39.7 79.6 44.4 79.4 45.1 56.6 45.1 57 43.8 70.9 .6 71.1 0 93.6 0"/>
  <path d="M34.1.8l.5-1.3h-6.8l-.2.7-3.5,9.9h-4.5L22.7.8l.5-1.3h-6.8l-.2.7-3.5,9.9h-5.4l-.2.8-.8,4.3-.2,1.1h4.3l-4.3,12h-4l-.2.8-.8,4.3-.2,1.1h2.8L.4,43.8l-.5,1.3h6.9l.2-.6,3.6-9.9h4.6l-3.4,9.3-.5,1.3h6.9l.2-.7,3.5-9.9h6.1v-.8c.1,0,.9-4.3.9-4.3l.2-1.1h-4.9l4.2-12h4.6v-.8c.1,0,.9-4.3.9-4.3l.2-1.1h-3.4l3.3-9.3ZM17.5,28.3h-4.6l4.3-12h4.5l-4.3,12Z"/>
</svg>