<?xml version="1.0" encoding="UTF-8"?>
<svg id="Livello_1" xmlns="http://www.w3.org/2000/svg" width="256" height="259" version="1.1" viewBox="0 0 256 259">
  <!-- Generator: Adobe Illustrator 29.6.0, SVG Export Plug-In . SVG Version: 2.1.1 Build 207)  -->
  <path d="M219,37.7C195.3,13.3,162.5,0,129,0,57.9,0,.7,57.9,1.4,128.4c0,22.3,6.3,43.9,16.7,63.5L0,258.1l67.7-17.4c18.8,10.5,39.8,15.3,60.7,15.3,70.5,0,127.7-57.9,127.7-128.4s-13.3-66.3-37-90h0ZM129,234.4c-18.8,0-37.7-4.9-53.7-14.6l-4.2-2.1-40.5,10.5,10.5-39.8-2.8-4.2C7.7,134.6,22.3,69.1,72.5,38.4c50.2-30.7,115.1-16,145.8,34.2,30.7,50.2,16,115.1-34.2,145.8-16,10.5-35.6,16-55.1,16h0ZM190.4,157l-7.7-3.5s-11.2-4.9-18.1-8.4c-.7,0-1.4-.7-2.1-.7-2.1,0-3.5.7-4.9,1.4,0,0-.7.7-10.5,11.9-.7,1.4-2.1,2.1-3.5,2.1h-.7c-.7,0-2.1-.7-2.8-1.4l-3.5-1.4c-7.7-3.5-14.6-7.7-20.2-13.3-1.4-1.4-3.5-2.8-4.9-4.2-4.9-4.9-9.8-10.5-13.3-16.7l-.7-1.4c-.7-.7-.7-1.4-1.4-2.8,0-1.4,0-2.8.7-3.5,0,0,2.8-3.5,4.9-5.6,1.4-1.4,2.1-3.5,3.5-4.9,1.4-2.1,2.1-4.9,1.4-7-.7-3.5-9.1-22.3-11.2-26.5-1.4-2.1-2.8-2.8-4.9-3.5h-7.7c-1.4,0-2.8.7-4.2.7l-.7.7c-1.4.7-2.8,2.1-4.2,2.8-1.4,1.4-2.1,2.8-3.5,4.2-4.9,6.3-7.7,14-7.7,21.6s1.4,11.2,3.5,16l.7,2.1c6.3,13.3,14.6,25.1,25.8,35.6l2.8,2.8c2.1,2.1,4.2,3.5,5.6,5.6,14.6,12.6,31.4,21.6,50.2,26.5,2.1.7,4.9.7,7,1.4h7c3.5,0,7.7-1.4,10.5-2.8,2.1-1.4,3.5-1.4,4.9-2.8l1.4-1.4c1.4-1.4,2.8-2.1,4.2-3.5s2.8-2.8,3.5-4.2c1.4-2.8,2.1-6.3,2.8-9.8v-4.9s-.7-.7-2.1-1.4h0Z" fill="#fff"/>
</svg>