<?xml version="1.0" encoding="UTF-8"?>
<svg id="Livello_1" data-name="Livello 1" xmlns="http://www.w3.org/2000/svg" viewBox="0 0 2000 2000">
  <rect x="-.670000016564" y="-.670000016564" width="2000.670000015758" height="2000.670000015758" rx="1000.330034195446" ry="1000.330034195446" fill="#1d1d1b"/>
  <circle cx="1000" cy="1000" r="933" fill="none" stroke="#fff" stroke-miterlimit="10" stroke-width="6"/>
  <g>
    <g>
      <g>
        <path d="M1487.180053710938,851.830017089844c0-18.97998046875-18.530029296875-32.429992675781-36.579956054688-26.549987792969l-451.969970703125,147.380004882812-469.280029296875,153.010009765625c-11.489990234375,3.75-19.269989013672,14.4599609375-19.269989013672,26.550048828125v91.449951171875c0,12.089965820312,7.779998779297,22.800048828125,19.269989013672,26.550048828125l428.670043945312,139.77001953125c26.390014648438,8.609985351562,54.840026855469,8.609985351562,81.22998046875,0l428.670043945312-139.77001953125c11.489990234375-3.75,19.27001953125-14.4599609375,19.27001953125-26.550048828125v-91.449951171875c0-12.089965820312-7.780029296875-22.800048828125-19.27001953125-26.550048828125l-157.550048828125-51.369995117188c-25.68994140625-8.380004882812-25.68994140625-44.719970703125,0-53.099975585938l157.56005859375-51.380004882812c11.489990234375-3.75,19.27001953125-14.460021972656,19.27001953125-26.549987792969v-91.450012207031l-.020141601562.009948730469ZM1142.219970703125,1226.219970703125l-102.97998046875,33.569946289062c-26.390014648438,8.609985351562-54.840026855469,8.609985351562-81.22998046875,0l-102.97998046875-33.569946289062c-11.489990234375-3.75-19.27001953125-14.4599609375-19.27001953125-26.550048828125v-3.4599609375c0-12.089965820312,7.780029296875-22.800048828125,19.27001953125-26.550048828125l102.97998046875-33.569946289062c26.390014648438-8.599975585938,54.840026855469-8.599975585938,81.22998046875,0l102.97998046875,33.569946289062c11.489990234375,3.75,19.27001953125,14.4599609375,19.27001953125,26.550048828125v3.4599609375c0,12.089965820312-7.780029296875,22.800048828125-19.27001953125,26.550048828125Z" fill="#fff"/>
        <path d="M1487.18994140625,625.659973144531v91.450012207031c0,12.090026855469-7.780029296875,22.799987792969-19.27001953125,26.549987792969h0c-5.630004882812,1.830017089844-11.68994140625,1.830017089844-17.31005859375,0l-411.380004882812-134.119995117188c-26.390014648438-8.609985351562-54.840026855469-8.599975585938-81.22998046875,0l-102.950012207031,33.570007324219c-11.489990234375,3.75-19.27001953125,14.460021972656-19.27001953125,26.549987792969v4.450012207031c0,11.599975585938,7.179992675781,22,18.030029296875,26.109985351562l88.929992675781,33.700012207031c28.239990234375,10.700012207031,59.309997558594,11.320007324219,87.9599609375,1.75l77.4599609375-25.880004882812c34.68994140625-11.590026855469,72.180053710938-11.72998046875,106.949951171875-.400024414062l95.52001953125,31.130004882812c25.670043945312,8.369995117188,25.699951171875,44.679992675781.0400390625,53.080017089844l-763.97998046875,250.369995117188c-18.059997558594,5.920043945312-36.619995117188-7.5400390625-36.619995117188-26.539978027344v-91.390014648438c0-12.090026855469,7.780029296875-22.799987792969,19.27001953125-26.549987792969l157.570007324219-51.380004882812c25.690002441406-8.380004882812,25.690002441406-44.719970703125,0-53.099975585938l-157.570007324219-51.369995117188c-11.489990234375-3.75-19.269989013672-14.460021972656-19.269989013672-26.549987792969v-91.450012207031c0-12.090026855469,7.779998779297-22.799987792969,19.269989013672-26.549987792969l428.670043945312-139.77001953125c26.390014648438-8.609985351562,54.840026855469-8.609985351562,81.22998046875,0l428.690063476562,139.77001953125c11.489990234375,3.75,19.27001953125,14.460021972656,19.27001953125,26.549987792969l-.010009765625.019958496094Z" fill="#fff"/>
      </g>
      <g>
        <path d="M1487.180053710938,851.830017089844c0-18.97998046875-18.530029296875-32.429992675781-36.579956054688-26.549987792969l-451.969970703125,147.380004882812-469.280029296875,153.010009765625c-11.489990234375,3.75-19.269989013672,14.4599609375-19.269989013672,26.550048828125v91.449951171875c0,12.089965820312,7.779998779297,22.800048828125,19.269989013672,26.550048828125l428.670043945312,139.77001953125c26.390014648438,8.609985351562,54.840026855469,8.609985351562,81.22998046875,0l428.670043945312-139.77001953125c11.489990234375-3.75,19.27001953125-14.4599609375,19.27001953125-26.550048828125v-91.449951171875c0-12.089965820312-7.780029296875-22.800048828125-19.27001953125-26.550048828125l-157.550048828125-51.369995117188c-25.68994140625-8.380004882812-25.68994140625-44.719970703125,0-53.099975585938l157.56005859375-51.380004882812c11.489990234375-3.75,19.27001953125-14.460021972656,19.27001953125-26.549987792969v-91.450012207031l-.020141601562.009948730469ZM1142.219970703125,1226.219970703125l-102.97998046875,33.569946289062c-26.390014648438,8.609985351562-54.840026855469,8.609985351562-81.22998046875,0l-102.97998046875-33.569946289062c-11.489990234375-3.75-19.27001953125-14.4599609375-19.27001953125-26.550048828125v-3.4599609375c0-12.089965820312,7.780029296875-22.800048828125,19.27001953125-26.550048828125l102.97998046875-33.569946289062c26.390014648438-8.599975585938,54.840026855469-8.599975585938,81.22998046875,0l102.97998046875,33.569946289062c11.489990234375,3.75,19.27001953125,14.4599609375,19.27001953125,26.550048828125v3.4599609375c0,12.089965820312-7.780029296875,22.800048828125-19.27001953125,26.550048828125Z" fill="#fff"/>
        <path d="M1487.18994140625,625.659973144531v91.450012207031c0,12.090026855469-7.780029296875,22.799987792969-19.27001953125,26.549987792969h0c-5.630004882812,1.830017089844-11.68994140625,1.830017089844-17.31005859375,0l-411.380004882812-134.119995117188c-26.390014648438-8.609985351562-54.840026855469-8.599975585938-81.22998046875,0l-102.950012207031,33.570007324219c-11.489990234375,3.75-19.27001953125,14.460021972656-19.27001953125,26.549987792969v4.450012207031c0,11.599975585938,7.179992675781,22,18.030029296875,26.109985351562l88.929992675781,33.700012207031c28.239990234375,10.700012207031,59.309997558594,11.320007324219,87.9599609375,1.75l77.4599609375-25.880004882812c34.68994140625-11.590026855469,72.180053710938-11.72998046875,106.949951171875-.400024414062l95.52001953125,31.130004882812c25.670043945312,8.369995117188,25.699951171875,44.679992675781.0400390625,53.080017089844l-763.97998046875,250.369995117188c-18.059997558594,5.920043945312-36.619995117188-7.5400390625-36.619995117188-26.539978027344v-91.390014648438c0-12.090026855469,7.780029296875-22.799987792969,19.27001953125-26.549987792969l157.570007324219-51.380004882812c25.690002441406-8.380004882812,25.690002441406-44.719970703125,0-53.099975585938l-157.570007324219-51.369995117188c-11.489990234375-3.75-19.269989013672-14.460021972656-19.269989013672-26.549987792969v-91.450012207031c0-12.090026855469,7.779998779297-22.799987792969,19.269989013672-26.549987792969l428.670043945312-139.77001953125c26.390014648438-8.609985351562,54.840026855469-8.609985351562,81.22998046875,0l428.690063476562,139.77001953125c11.489990234375,3.75,19.27001953125,14.460021972656,19.27001953125,26.549987792969l-.010009765625.019958496094Z" fill="#fff"/>
      </g>
    </g>
    <g>
      <path d="M563.210021972656,426.709991455078l7.280029296875-2.399993896484c2.840026855469-.940002441406,5.760009765625,1.179992675781,5.760009765625,4.170013427734v7.299987792969c0,7-1.739990234375,13.019989013672-5.219970703125,18.059997558594s-8.169982910156,8.529998779297-14.059997558594,10.480010986328c-6.080017089844,2-10.880004882812,1.769989013672-14.390014648438-.700012207031s-5.27001953125-6.809997558594-5.27001953125-13.019989013672v-58.630004882812c0-7,1.710021972656-13.109985351562,5.130004882812-18.329986572266s8.070007324219-8.799987792969,13.969970703125-10.739990234375c4.950012207031-1.630004882812,9.010009765625-1.200012207031,12.179992675781,1.279998779297,2.340026855469,1.839996337891,3.97998046875,4.890014648438,4.890014648438,9.140014648438.549987792969,2.559997558594,3.179992675781,4.089996337891,5.659973144531,3.269989013672l14.52001953125-4.779998779297c1.950012207031-.640014648438,3.210021972656-2.549987792969,3-4.589996337891-.799987792969-7.739990234375-2.650024414062-13.989990234375-5.549987792969-18.730010986328-3.320007324219-5.440002441406-7.890014648438-8.850006103516-13.679992675781-10.239990234375-5.799987792969-1.390014648438-12.809997558594-.730010986328-21.02001953125,1.980010986328-8.400024414062,2.769989013672-15.679992675781,7-21.820007324219,12.690002441406s-10.900024414062,12.489990234375-14.25,20.390014648438c-3.349975585938,7.910003662109-5.030029296875,16.549987792969-5.030029296875,25.920013427734v58.630004882812c0,8.779998779297,1.690002441406,15.829986572266,5.080017089844,21.149993896484s8.200012207031,8.690002441406,14.440002441406,10.100006103516,13.619995117188.709991455078,22.150024414062-2.100006103516c8.460021972656-2.790008544922,15.75-7.019989013672,21.869995117188-12.700012207031,6.109985351562-5.679992675781,10.849975585938-12.450012207031,14.200012207031-20.329986572266,3.349975585938-7.869995117188,5.030029296875-16.429992675781,5.030029296875-25.670013427734v-28.589996337891c0-2.989990234375-2.919982910156-5.100006103516-5.760009765625-4.170013427734l-31.849975585938,10.5c-1.799987792969.589996337891-3.010009765625,2.269989013672-3.010009765625,4.170013427734v12.350006103516c0,2.989990234375,2.919982910156,5.100006103516,5.760009765625,4.170013427734l-.010070800781-.030090332031Z" fill="#fff"/>
      <path d="M698.530029296875,374.029998779297c5.489990234375-4.880004882812,9.75-10.660003662109,12.789978027344-17.339996337891s4.559997558594-13.950012207031,4.559997558594-21.799987792969v-8.420013427734c0-7.720001220703-1.510009765625-13.899993896484-4.510009765625-18.519989013672-3.010009765625-4.619995117188-7.27001953125-7.519989013672-12.789978027344-8.709991455078-5.52001953125-1.179992675781-12.039978027344-.540008544922-19.559997558594,1.940002441406l-23.510009765625,7.75h0l-18.429992675781,6.070007324219c-1.799987792969.589996337891-3.010009765625,2.269989013672-3.010009765625,4.170013427734v134.850006103516c0,2.989990234375,2.919982910156,5.100006103516,5.760009765625,4.170013427734l12.669982910156-4.170013427734c1.799987792969-.589996337891,3.010009765625-2.269989013672,3.010009765625-4.170013427734v-53.859985351562c0-1.890014648438,1.219970703125-3.570007324219,3.010009765625-4.170013427734l10.049987792969-3.309997558594c2.130004882812-.700012207031,4.450012207031.309997558594,5.369995117188,2.359985351562l20.47998046875,45.209991455078c.929992675781,2.040008544922,3.239990234375,3.059997558594,5.369995117188,2.359985351562l16.140014648438-5.320007324219c2.52001953125-.829986572266,3.72998046875-3.690002441406,2.580017089844-6.079986572266l-22.5-46.529998779297c-.890014648438-1.839996337891-.369995117188-4.029998779297,1.210021972656-5.339996337891.450012207031-.369995117188.890014648438-.75,1.320007324219-1.130004882812l-.010009765625-.010009765625ZM655.5,333.799987792969c0-1.890014648438,1.219970703125-3.570007324219,3.010009765625-4.170013427734l20.969970703125-6.910003662109c4.390014648438-1.450012207031,7.849975585938-1.089996337891,10.390014648438,1.079986572266,2.539978027344,2.170013427734,3.809997558594,5.760009765625,3.809997558594,10.779998779297v7.820007324219c-.059997558594,4.970001220703-1.349975585938,9.320007324219-3.859985351562,13.059997558594-2.510009765625,3.730010986328-5.960021972656,6.320007324219-10.349975585938,7.769989013672l-18.219970703125,6.010009765625c-2.840026855469.940002441406-5.760009765625-1.179992675781-5.760009765625-4.170013427734v-31.260009765625l.009948730469-.009948730469Z" fill="#fff"/>
      <path d="M781.349975585938,269.660003662109l-39.080017089844,147.630004882812c-.890014648438,3.369995117188,2.309997558594,6.380004882812,5.619995117188,5.290008544922l12.650024414062-4.170013427734c1.450012207031-.480010986328,2.539978027344-1.670013427734,2.900024414062-3.149993896484l5.859985351562-24.670013427734c.349975585938-1.480010986328,1.450012207031-2.679992675781,2.900024414062-3.149993896484l33.869995117188-11.160003662109c2.369995117188-.779998779297,4.919982910156.570007324219,5.599975585938,2.980010986328l4.510009765625,16c.679992675781,2.410003662109,3.219970703125,3.760009765625,5.599975585938,2.980010986328l14.179992675781-4.670013427734c2.289978027344-.75,3.539978027344-3.209991455078,2.809997558594-5.510009765625l-39.080017089844-121.869995117188c-.739990234375-2.320007324219-3.239990234375-3.589996337891-5.549987792969-2.829986572266l-9.900024414062,3.260009765625c-1.409973144531.459991455078-2.489990234375,1.609985351562-2.869995117188,3.040008544922l-.019958496094-.000030517578ZM777.200012207031,357.350006103516l9.039978027344-38.019989013672c1.049987792969-4.399993896484,7.27001953125-4.529998779297,8.489990234375-.179992675781l9.039978027344,32.059997558594c.640014648438,2.260009765625-.619995117188,4.619995117188-2.849975585938,5.359985351562l-18.070007324219,5.959991455078c-3.260009765625,1.070007324219-6.440002441406-1.839996337891-5.640014648438-5.179992675781h-.009948730469Z" fill="#fff"/>
      <path d="M937.169982910156,235.350006103516c-5.679992675781-2.240005493164-12.47998046875-2.779998779297-20.380004882812-1.630004882812l-24.109985351562,3.520004272461h0l-18.679992675781,2.729995727539c-2.159973144531.309997558594-3.75,2.160003662109-3.75,4.339996337891v135.119995117188c0,2.679992675781,2.369995117188,4.730010986328,5.02001953125,4.339996337891l13.659973144531-1.989990234375c2.159973144531-.309997558594,3.75-2.160003662109,3.75-4.339996337891v-48.260009765625c0-2.179992675781,1.599975585938-4.029998779297,3.75-4.339996337891l20.349975585938-2.970001220703c7.77001953125-1.130004882812,14.530029296875-3.640014648438,20.280029296875-7.519989013672,5.75-3.869995117188,10.190002441406-8.899993896484,13.330017089844-15.070007324219,3.130004882812-6.170013427734,4.700012207031-13.149993896484,4.700012207031-20.940002441406v-11.880004882812c0-7.859985351562-1.570007324219-14.440002441406-4.700012207031-19.759994506836-3.140014648438-5.320007324219-7.549987792969-9.100006103516-13.22998046875-11.339996337891l.009948730469-.009994506836ZM932.070007324219,280.609985351562c0,5.220001220703-1.359985351562,9.609985351562-4.070007324219,13.170013427734-2.710021972656,3.559997558594-6.349975585938,5.679992675781-10.929992675781,6.350006103516l-19.380004882812,2.829986572266c-2.650024414062.390014648438-5.02001953125-1.670013427734-5.02001953125-4.339996337891v-35.890014648438c0-2.179992675781,1.599975585938-4.029998779297,3.75-4.339996337891l20.650024414062-3.009994506836c4.640014648438-.679992675781,8.299987792969.369995117188,10.969970703125,3.150009155273,2.679992675781,2.779998779297,4.02001953125,6.910003662109,4.02001953125,12.390014648438v9.700012207031l.010009765625-.010040283203Z" fill="#fff"/>
      <path d="M1057.760009765625,235.119995117188c-5.72998046875-3.369995117188-12.589965820312-5.270004272461-20.569946289062-5.690002441406l-24.330017089844-1.279998779297h0l-7.52001953125-.399993896484-3.950012207031-.210006713867h0l-6.559997558594-.350006103516c-2.510009765625-.130004882812-4.619995117188,1.869995117188-4.619995117188,4.380004882812v135.199996948242c0,2.329986572266,1.830017089844,4.260009765625,4.159973144531,4.380004882812l13.869995117188.730010986328c2.510009765625.130004882812,4.619995117188-1.869995117188,4.619995117188-4.380004882812v-46.600006103516c0-2.510009765625,2.109985351562-4.510009765625,4.619995117188-4.380004882812l19.7099609375,1.040008544922c7.839965820312.410003662109,14.670043945312-.739990234375,20.469970703125-3.470001220703,5.800048828125-2.730010986328,10.280029296875-6.869995117188,13.449951171875-12.410003662109,3.170043945312-5.540008544922,4.75-12.209991455078,4.75-20v-11.880004882812c0-7.859985351562-1.579956054688-14.759994506836-4.75-20.699996948242-3.160034179688-5.940002441406-7.609985351562-10.600006103516-13.349975585938-13.979995727539h.000122070312ZM1052.619995117188,279.359985351562c0,5.220001220703-1.369995117188,9.339996337891-4.099975585938,12.359985351562-2.739990234375,3.019989013672-6.410034179688,4.410003662109-11.030029296875,4.170013427734l-20.469970703125-1.079986572266c-2.330017089844-.119995117188-4.159973144531-2.049987792969-4.159973144531-4.380004882812v-35.970001220703c0-2.509994506836,2.109985351562-4.509994506836,4.619995117188-4.380004882812l19.999938964844,1.059997558594c4.680053710938.25,8.369995117188,2.029998779297,11.079956054688,5.339996337891,2.699951171875,3.309997558594,4.050048828125,7.709991455078,4.050048828125,13.190002441406v9.700012207031l.010009765625-.010009765625Z" fill="#fff"/>
      <path d="M1129.130004882812,242.160003662109l-13.25-3.25c-2.77001953125-.679992675781-5.430053710938,1.410003662109-5.430053710938,4.259994506836v134.949996948242c0,2.019989013672,1.380004882812,3.779998779297,3.339965820312,4.260009765625l18.680053710938,4.589996337891h0l48.0400390625,11.790008544922c2.77001953125.679992675781,5.430053710938-1.410003662109,5.430053710938-4.260009765625v-12.649993896484c0-2.019989013672-1.380004882812-3.779998779297-3.339965820312-4.260009765625l-46.7900390625-11.480010986328c-1.9599609375-.480010986328-3.339965820312-2.239990234375-3.339965820312-4.260009765625v-115.419998168945c0-2.020004272461-1.380004882812-3.779998779297-3.339965820312-4.259994506836l-.000122070312-.009979248047Z" fill="#fff"/>
      <path d="M1218.900024414062,412.540008544922l12.949951171875,4.269989013672c2.839965820312.940002441406,5.760009765625-1.179992675781,5.760009765625-4.170013427734v-134.75c0-1.890014648438-1.219970703125-3.570007324219-3.010009765625-4.170013427734l-12.949951171875-4.269989013672c-2.839965820312-.940002441406-5.760009765625,1.179992675781-5.760009765625,4.170013427734v134.75c0,1.890014648438,1.219970703125,3.570007324219,3.010009765625,4.170013427734Z" fill="#fff"/>
      <path d="M1332.5400390625,387.829986572266l-35.160034179688-91.720001220703c-.469970703125-1.230010986328-1.469970703125-2.179992675781-2.719970703125-2.600006103516l-12.949951171875-4.269989013672c-2.839965820312-.940002441406-5.760009765625,1.179992675781-5.760009765625,4.170013427734v134.649993896484c0,1.890014648438,1.219970703125,3.570007324219,3.010009765625,4.170013427734l11.72998046875,3.859985351562c2.839965820312.940002441406,5.760009765625-1.179992675781,5.760009765625-4.170013427734v-69.059997558594c0-4.850006103516,6.7099609375-6.119995117188,8.47998046875-1.600006103516l34.880004882812,89.329986572266c.47998046875,1.220001220703,1.469970703125,2.160003662109,2.7099609375,2.570007324219l13.25,4.369995117188c2.839965820312.940002441406,5.760009765625-1.179992675781,5.760009765625-4.170013427734v-134.649993896484c0-1.890014648438-1.219970703125-3.570007324219-3.010009765625-4.170013427734l-11.72998046875-3.869995117188c-2.839965820312-.940002441406-5.760009765625,1.179992675781-5.760009765625,4.170013427734v71.390014648438c0,4.869995117188-6.739990234375,6.119995117188-8.489990234375,1.570007324219v.029998779297Z" fill="#fff"/>
      <path d="M1441.5400390625,413.649993896484v12.350006103516c0,1.890014648438,1.219970703125,3.570007324219,3.010009765625,4.170013427734l12.780029296875,4.209991455078c1.800048828125.589996337891,3.010009765625,2.269989013672,3.010009765625,4.170013427734v10.190002441406c0,7-1.739990234375,11.869995117188-5.219970703125,14.619995117188s-8.170043945312,3.149993896484-14.06005859375,1.209991455078c-6.079956054688-2-10.880004882812-5.399993896484-14.390014648438-10.190002441406s-5.27001953125-10.290008544922-5.27001953125-16.489990234375v-58.630004882812c0-7,1.7099609375-11.980010986328,5.130004882812-14.950012207031s8.069946289062-3.480010986328,13.969970703125-1.540008544922c4.949951171875,1.630004882812,9.010009765625,4.739990234375,12.180053710938,9.309997558594,2.760009765625,3.989990234375,4.530029296875,8.989990234375,5.31005859375,15.010009765625.219970703125,1.679992675781,1.369995117188,3.089996337891,2.969970703125,3.609985351562l13.699951171875,4.510009765625c3.06005859375,1.010009765625,6.150024414062-1.510009765625,5.72998046875-4.700012207031-.930053710938-7.040008544922-2.660034179688-13.470001220703-5.18994140625-19.279998779297-3.319946289062-7.630004882812-7.890014648438-14.049987792969-13.680053710938-19.269989013672-5.800048828125-5.209991455078-12.81005859375-9.170013427734-21.02001953125-11.880004882812-8.400024414062-2.769989013672-15.680053710938-3.329986572266-21.819946289062-1.700012207031-6.150024414062,1.640014648438-10.900024414062,5.309997558594-14.25,11-3.359985351562,5.690002441406-5.030029296875,13.230010986328-5.030029296875,22.600006103516v58.630004882812c0,8.779998779297,1.68994140625,16.950012207031,5.079956054688,24.5s8.199951171875,14.089996337891,14.43994140625,19.609985351562,13.619995117188,9.690002441406,22.150024414062,12.5c8.469970703125,2.790008544922,15.75,3.359985351562,21.869995117188,1.709991455078,6.109985351562-1.649993896484,10.849975585938-5.299987792969,14.199951171875-10.970001220703,3.349975585938-5.660003662109,5.030029296875-13.109985351562,5.030029296875-22.359985351562v-31.489990234375c0-1.890014648438-1.219970703125-3.570007324219-3.010009765625-4.170013427734l-31.849975585938-10.5c-2.839965820312-.940002441406-5.760009765625,1.179992675781-5.760009765625,4.170013427734l-.009887695312.040008544922Z" fill="#fff"/>
    </g>
    <g>
      <path d="M620.210021972656,1604.530029296875c-5.429992675781-4.22998046875-5.52001953125-12.47998046875-.299987792969-16.9599609375,1.530029296875-1.319946289062,2.929992675781-2.760009765625,4.190002441406-4.339965820312,5.510009765625-6.869995117188,8.260009765625-15.27001953125,8.260009765625-25.18994140625v-10.7900390625c0-14.75-4.369995117188-26.260009765625-13.109985351562-34.550048828125-8.739990234375-8.280029296875-21.440002441406-12.430053710938-38.099975585938-12.430053710938h-53.349975585938c-6.130004882812,0-11.099975585938,4.969970703125-11.099975585938,11.099975585938v176.329956054688c0,6.130004882812,4.969970703125,11.099975585938,11.099975585938,11.099975585938h56.210021972656c16.109985351562,0,28.630004882812-4.22998046875,37.549987792969-12.699951171875s13.380004882812-20.069946289062,13.380004882812-34.819946289062v-13.650024414062c0-11.010009765625-3.049987792969-20.22998046875-9.150024414062-27.650024414062-1.679992675781-2.0400390625-3.539978027344-3.859985351562-5.590026855469-5.4599609375l.009948730469.010009765625ZM578.830017089844,1529.630004882812c7.190002441406,0,12.700012207031,1.7099609375,16.52001953125,5.119995117188s5.72998046875,8.349975585938,5.72998046875,14.819946289062v10.380004882812c0,7.099975585938-1.820007324219,12.52001953125-5.460021972656,16.25s-8.969970703125,5.599975585938-15.97998046875,5.599975585938h-20.710021972656c-6.130004882812,0-11.099975585938-4.969970703125-11.099975585938-11.099975585938v-29.949951171875c0-6.130004882812,4.969970703125-11.099975585938,11.099975585938-11.099975585938h19.890014648438l.010009765625-.02001953125ZM603.539978027344,1648.420043945312c0,6.369995117188-2.049987792969,11.469970703125-6.140014648438,15.2900390625-4.099975585938,3.819946289062-10.330017089844,5.72998046875-18.710021972656,5.72998046875h-19.760009765625c-6.130004882812,0-11.099975585938-4.969970703125-11.099975585938-11.099975585938v-36.22998046875c0-6.130004882812,4.969970703125-11.099975585938,11.099975585938-11.099975585938h20.97998046875c7.739990234375,0,13.609985351562,2.119995117188,17.609985351562,6.349975585938s6.010009765625,10.130004882812,6.010009765625,17.680053710938v13.380004882812l.010070800781-.000122070312Z" fill="#fff"/>
      <path d="M700.440002441406,1500.27001953125h-2.820007324219c-6.130004882812,0-11.099975585938,4.969970703125-11.099975585938,11.099975585938v176.329956054688c0,6.130004882812,4.969970703125,11.099975585938,11.099975585938,11.099975585938h86.349975585938c6.130004882812,0,11.099975585938-4.969970703125,11.099975585938-11.099975585938v-7.829956054688c0-6.130004882812-4.969970703125-11.099975585938-11.099975585938-11.099975585938h-55.080017089844c-6.130004882812,0-11.099975585938-4.969970703125-11.099975585938-11.099975585938v-31.449951171875c0-6.130004882812,4.969970703125-11.099975585938,11.099975585938-11.099975585938h44.150024414062c6.130004882812,0,11.099975585938-4.969970703125,11.099975585938-11.099975585938v-7.56005859375c0-6.130004882812-4.969970703125-11.099975585938-11.099975585938-11.099975585938h-44.150024414062c-6.130004882812,0-11.099975585938-4.969970703125-11.099975585938-11.099975585938v-32.819946289062c0-6.130004882812,4.969970703125-11.099975585938,11.099975585938-11.099975585938h55.080017089844c6.130004882812,0,11.099975585938-4.969970703125,11.099975585938-11.099975585938v-7.829956054688c0-6.130004882812-4.969970703125-11.099975585938-11.099975585938-11.099975585938h-83.52001953125l-.009948730469-.040283203125Z" fill="#fff"/>
      <path d="M943.090026855469,1600.2900390625c-4.869995117188-3.68994140625-10.260009765625-6.670043945312-16.179992675781-8.93994140625-5.919982910156-2.27001953125-11.880004882812-4.319946289062-17.890014648438-6.140014648438-6.280029296875-2-12.200012207031-4-17.75-6.010009765625-5.549987792969-2-10.039978027344-4.68994140625-13.450012207031-8.06005859375-3.409973144531-3.369995117188-5.119995117188-8.140014648438-5.119995117188-14.339965820312v-6.420043945312c0-7.099975585938,2.429992675781-12.579956054688,7.299987792969-16.449951171875s11.760009765625-5.800048828125,20.690002441406-5.800048828125c6.460021972656,0,12.080017089844,2.069946289062,16.859985351562,6.2099609375,2.679992675781,2.329956054688,5,5.280029296875,6.960021972656,8.859985351562,2.780029296875,5.099975585938,9.119995117188,7.06005859375,14.380004882812,4.599975585938l8.890014648438-4.170043945312c5.359985351562-2.510009765625,7.869995117188-8.819946289062,5.559997558594-14.280029296875-3.659973144531-8.670043945312-8.969970703125-15.569946289062-15.919982910156-20.680053710938-9.469970703125-6.9599609375-21.390014648438-10.449951171875-35.77001953125-10.449951171875-19.119995117188,0-33.909973144531,4.619995117188-44.380004882812,13.859985351562-10.469970703125,9.239990234375-15.700012207031,22.420043945312-15.700012207031,39.530029296875v5.319946289062c0,10.02001953125,1.590026855469,18.2099609375,4.780029296875,24.579956054688s7.369995117188,11.449951171875,12.559997558594,15.22998046875,10.940002441406,6.780029296875,17.27001953125,9.010009765625,12.539978027344,4.300048828125,18.640014648438,6.2099609375c5.919982910156,1.640014648438,11.400024414062,3.4599609375,16.450012207031,5.4599609375s9.150024414062,4.619995117188,12.289978027344,7.849975585938c3.140014648438,3.22998046875,4.710021972656,7.760009765625,4.710021972656,13.589965820312v8.880004882812c0,7.18994140625-2.530029296875,12.839965820312-7.580017089844,16.930053710938-5.049987792969,4.099975585938-12.309997558594,6.150024414062-21.780029296875,6.150024414062-8.010009765625,0-14.820007324219-2.180053710938-20.409973144531-6.550048828125-3.309997558594-2.589965820312-6.090026855469-5.890014648438-8.340026855469-9.910034179688-2.799987792969-5.02001953125-8.900024414062-7.160034179688-14.169982910156-4.859985351562l-9.830017089844,4.280029296875c-5.609985351562,2.43994140625-8.260009765625,8.989990234375-5.77001953125,14.579956054688,2.159973144531,4.849975585938,4.869995117188,9.180053710938,8.140014648438,12.989990234375,5.460021972656,6.369995117188,12.359985351562,11.219970703125,20.690002441406,14.5400390625,8.330017089844,3.319946289062,17.859985351562,4.97998046875,28.609985351562,4.97998046875,19.659973144531,0,34.840026855469-4.640014648438,45.539978027344-13.930053710938,10.700012207031-9.2900390625,16.039978027344-22.43994140625,16.039978027344-39.4599609375v-8.869995117188c0-9.469970703125-1.5-17.300048828125-4.510009765625-23.489990234375-3-6.18994140625-6.940002441406-11.130004882812-11.809997558594-14.819946289062l.000061035156-.009643554688Z" fill="#fff"/>
      <path d="M1055.130004882812,1508.130004882812l-53.849975585938,176.329956054688c-2.179992675781,7.140014648438,3.159973144531,14.349975585938,10.619995117188,14.349975585938h9.419982910156c5.009948730469,0,9.399963378906-3.359985351562,10.720031738281-8.18994140625l5.7099609375-21.030029296875c1.31005859375-4.839965820312,5.699951171875-8.18994140625,10.719970703125-8.18994140625h41.900024414062c5.010009765625,0,9.400024414062,3.359985351562,10.719970703125,8.18994140625l5.7099609375,21.030029296875c1.31005859375,4.839965820312,5.699951171875,8.18994140625,10.719970703125,8.18994140625h9.420043945312c7.4599609375,0,12.800048828125-7.2099609375,10.619995117188-14.349975585938l-53.849975585938-176.329956054688c-1.430053710938-4.670043945312-5.739990234375-7.859985351562-10.619995117188-7.859985351562h-7.319946289062c-4.880004882812,0-9.18994140625,3.18994140625-10.619995117188,7.859985351562h-.02001953125ZM1051.7900390625,1617.890014648438l6.910034179688-25.449951171875c2.969970703125-10.930053710938,18.4599609375-10.930053710938,21.430053710938,0l6.910034179688,25.449951171875c1.920043945312,7.06005859375-3.400024414062,14.010009765625-10.719970703125,14.010009765625h-13.819946289062c-7.319946289062,0-12.630004882812-6.949951171875-10.719970703125-14.010009765625h.009765625Z" fill="#fff"/>
      <path d="M1257.910034179688,1593.910034179688l-40.2900390625-87.199951171875c-1.819946289062-3.930053710938-5.75-6.449951171875-10.079956054688-6.449951171875h-11.839965820312c-6.130004882812,0-11.099975585938,4.969970703125-11.099975585938,11.099975585938v176.18994140625c0,6.130004882812,4.969970703125,11.099975585938,11.099975585938,11.099975585938h7.56005859375c6.130004882812,0,11.099975585938-4.969970703125,11.099975585938-11.099975585938v-75.06005859375c0-11.849975585938,16.089965820312-15.4599609375,21.150024414062-4.739990234375l39.890014648438,84.5400390625c1.829956054688,3.890014648438,5.739990234375,6.369995117188,10.0400390625,6.369995117188h12.31005859375c6.130004882812,0,11.099975585938-4.969970703125,11.099975585938-11.099975585938v-176.18994140625c0-6.130004882812-4.969970703125-11.099975585938-11.099975585938-11.099975585938h-7.56005859375c-6.130004882812,0-11.099975585938,4.969970703125-11.099975585938,11.099975585938v77.880004882812c0,11.900024414062-16.18994140625,15.4599609375-21.180053710938,4.660034179688l-.000122070312-.000122070312Z" fill="#fff"/>
      <path d="M1469.410034179688,1698.81005859375h9.420043945312c7.4599609375,0,12.800048828125-7.2099609375,10.619995117188-14.349975585938l-53.849975585938-176.329956054688c-1.430053710938-4.670043945312-5.739990234375-7.859985351562-10.619995117188-7.859985351562h-7.319946289062c-4.880004882812,0-9.18994140625,3.18994140625-10.619995117188,7.859985351562l-53.849975585938,176.329956054688c-2.180053710938,7.140014648438,3.160034179688,14.349975585938,10.619995117188,14.349975585938h9.420043945312c5.010009765625,0,9.400024414062-3.359985351562,10.719970703125-8.18994140625l5.7099609375-21.030029296875c1.31005859375-4.839965820312,5.699951171875-8.18994140625,10.719970703125-8.18994140625h41.900024414062c5.010009765625,0,9.400024414062,3.359985351562,10.719970703125,8.18994140625l5.7099609375,21.030029296875c1.31005859375,4.839965820312,5.699951171875,8.18994140625,10.719970703125,8.18994140625h-.02001953125ZM1403.68994140625,1617.890014648438l6.910034179688-25.449951171875c2.969970703125-10.930053710938,18.4599609375-10.930053710938,21.430053710938,0l6.910034179688,25.449951171875c1.920043945312,7.06005859375-3.400024414062,14.010009765625-10.719970703125,14.010009765625h-13.819946289062c-7.319946289062,0-12.630004882812-6.949951171875-10.719970703125-14.010009765625h.009765625Z" fill="#fff"/>
    </g>
    <g>
      <path d="M924.669982910156,1809.430053710938c2.719970703125-4.380004882812,4.789978027344-8.650024414062,6.190002441406-12.800048828125,1.409973144531-4.150024414062,2.109985351562-7.949951171875,2.109985351562-11.400024414062v-.06005859375c0-7.530029296875-2.02001953125-13.2900390625-6.070007324219-17.27001953125s-9.900024414062-5.969970703125-17.559997558594-5.969970703125c-7.150024414062,0-12.789978027344,2.2099609375-16.919982910156,6.640014648438s-6.469970703125,10.819946289062-7.030029296875,19.160034179688v.18994140625h12.960021972656v-.18994140625c.260009765625-4.430053710938,1.359985351562-7.819946289062,3.320007324219-10.18994140625,1.960021972656-2.359985351562,4.659973144531-3.5400390625,8.109985351562-3.5400390625s5.789978027344.949951171875,7.539978027344,2.839965820312c1.75,1.900024414062,2.619995117188,4.630004882812,2.619995117188,8.2099609375v.130004882812c0,2.719970703125-.609985351562,5.760009765625-1.820007324219,9.099975585938s-2.989990234375,6.869995117188-5.330017089844,10.569946289062l-25.97998046875,39.150024414062c-.390014648438.579956054688-.590026855469,1.260009765625-.590026855469,1.9599609375v6.239990234375c0,1.9599609375,1.590026855469,3.5400390625,3.539978027344,3.5400390625h39.849975585938c1.960021972656,0,3.539978027344-1.589965820312,3.539978027344-3.5400390625v-4.849975585938c0-1.9599609375-1.590026855469-3.5400390625-3.539978027344-3.5400390625h-20.659973144531c-2.809997558594,0-4.5-3.109985351562-2.97998046875-5.469970703125l18.690002441406-28.890014648438.010070800781-.019775390625Z" fill="#fff"/>
      <path d="M970.900024414062,1761.859985351562c-7.659973144531,0-13.52001953125,2.089965820312-17.559997558594,6.260009765625-4.049987792969,4.170043945312-6.070007324219,10-6.070007324219,17.5v47.260009765625c0,7.449951171875,2,13.280029296875,6,17.5,4,4.2099609375,9.880004882812,6.319946289062,17.630004882812,6.319946289062s13.52001953125-2.099975585938,17.559997558594-6.2900390625c4.039978027344-4.18994140625,6.070007324219-10.0400390625,6.070007324219-17.530029296875v-47.260009765625c0-7.489990234375-2.02001953125-13.329956054688-6.070007324219-17.5s-9.900024414062-6.260009765625-17.559997558594-6.260009765625v.000122070312ZM981.950012207031,1832.869995117188c0,3.75-.900024414062,6.660034179688-2.710021972656,8.75s-4.590026855469,3.130004882812-8.330017089844,3.130004882812-6.52001953125-1.0400390625-8.330017089844-3.130004882812-2.710021972656-5-2.710021972656-8.75v-47.260009765625c0-3.75.900024414062-6.660034179688,2.710021972656-8.75s4.590026855469-3.130004882812,8.330017089844-3.130004882812,6.52001953125,1.0400390625,8.330017089844,3.130004882812,2.710021972656,5,2.710021972656,8.75v47.260009765625Z" fill="#fff"/>
      <path d="M1047.849975585938,1809.430053710938c2.719970703125-4.380004882812,4.7900390625-8.650024414062,6.18994140625-12.800048828125,1.410034179688-4.150024414062,2.109985351562-7.949951171875,2.109985351562-11.400024414062v-.06005859375c0-7.530029296875-2.02001953125-13.2900390625-6.069946289062-17.27001953125-4.050048828125-3.97998046875-9.900024414062-5.969970703125-17.56005859375-5.969970703125-7.150024414062,0-12.789978027344,2.2099609375-16.919982910156,6.640014648438s-6.469970703125,10.819946289062-7.030029296875,19.160034179688v.18994140625h12.960021972656v-.18994140625c.260009765625-4.430053710938,1.359985351562-7.819946289062,3.319946289062-10.18994140625,1.9599609375-2.359985351562,4.660034179688-3.5400390625,8.109985351562-3.5400390625s5.7900390625.949951171875,7.5400390625,2.839965820312c1.75,1.900024414062,2.619995117188,4.630004882812,2.619995117188,8.2099609375v.130004882812c0,2.719970703125-.609985351562,5.760009765625-1.819946289062,9.099975585938s-2.989990234375,6.869995117188-5.329956054688,10.569946289062l-25.97998046875,39.150024414062c-.390014648438.579956054688-.590026855469,1.260009765625-.590026855469,1.9599609375v6.239990234375c0,1.9599609375,1.590026855469,3.5400390625,3.539978027344,3.5400390625h39.849975585938c1.9599609375,0,3.5400390625-1.589965820312,3.5400390625-3.5400390625v-4.849975585938c0-1.9599609375-1.589965820312-3.5400390625-3.5400390625-3.5400390625h-20.660034179688c-2.81005859375,0-4.5-3.109985351562-2.97998046875-5.469970703125l18.68994140625-28.890014648438.010131835938-.019775390625Z" fill="#fff"/>
      <path d="M1111.300048828125,1798.420043945312c-3.640014648438-4.239990234375-8.800048828125-6.349975585938-15.489990234375-6.349975585938-1.9599609375,0-3.869995117188.380004882812-5.75,1.150024414062-.02001953125,0-.0400390625.02001953125-.06005859375.02001953125-2.339965820312.969970703125-4.920043945312-.670043945312-4.920043945312-3.199951171875v-11.670043945312c0-1.9599609375,1.589965820312-3.5400390625,3.5400390625-3.5400390625h22.859985351562c1.9599609375,0,3.5400390625-1.589965820312,3.5400390625-3.5400390625v-4.849975585938c0-1.9599609375-1.589965820312-3.5400390625-3.5400390625-3.5400390625h-35.43994140625c-1.9599609375,0-3.5400390625,1.589965820312-3.5400390625,3.5400390625v41.890014648438c0,1.9599609375,1.589965820312,3.5400390625,3.5400390625,3.5400390625h5.550048828125c1.339965820312,0,2.579956054688-.75,3.160034179688-1.9599609375.739990234375-1.5400390625,1.72998046875-2.800048828125,2.969970703125-3.760009765625,1.719970703125-1.339965820312,3.760009765625-2.010009765625,6.099975585938-2.010009765625,3.280029296875,0,5.819946289062,1.06005859375,7.630004882812,3.18994140625,1.81005859375,2.130004882812,2.7099609375,5.130004882812,2.7099609375,9.010009765625v16.030029296875c0,3.920043945312-.93994140625,6.949951171875-2.81005859375,9.099975585938-1.869995117188,2.150024414062-4.489990234375,3.219970703125-7.849975585938,3.219970703125s-5.75-.989990234375-7.5400390625-2.969970703125-2.77001953125-4.890014648438-2.93994140625-8.719970703125v-.06005859375h-12.579956054688v.06005859375c.420043945312,7.7900390625,2.599975585938,13.68994140625,6.510009765625,17.68994140625,3.920043945312,4,9.430053710938,6,16.5400390625,6s13.130004882812-2.119995117188,17.180053710938-6.349975585938c4.0400390625-4.239990234375,6.069946289062-10.22998046875,6.069946289062-17.97998046875v-16.030029296875c0-7.7099609375-1.819946289062-13.680053710938-5.4599609375-17.910034179688h.019897460938Z" fill="#fff"/>
    </g>
  </g>
</svg>